<?xml version="1.0" encoding="utf-8"?>
<!-- Generator: Adobe Illustrator 26.0.0, SVG Export Plug-In . SVG Version: 6.00 Build 0)  -->
<svg version="1.1" id="Layer_1" xmlns="http://www.w3.org/2000/svg" xmlns:xlink="http://www.w3.org/1999/xlink" x="0px" y="0px"
	 viewBox="0 0 200 200" style="enable-background:new 0 0 200.2 174.7;" xml:space="preserve">
<style type="text/css">
	.st1{fill:#2A2F38;}
	.st2{fill:#E2E2E2;}
	.st3{fill:#82FF47;}
	.st4{fill:#64C3EB;}
	.st5{fill:#F04DA1;}
</style>
<circle class="st1" cx="47.9" cy="34.1" r="18.7"/>
<circle class="st2" cx="47.9" cy="34.1" r="1.6"/>
<circle class="st3" cx="45.8" cy="22.2" r="1.2"/>
<g>
	<path class="st2" d="M43.3,45L43.3,45l-0.6-0.7l0,0c-2.4,2.2-3.7,2.7-4,2.5c0,0-0.1-0.1-0.1-0.2c-0.1-0.2-0.2-1.3,1.2-4.4
		c1.3-2.8,3.4-6.2,5.9-9.7s5.2-6.5,7.4-8.6c2.4-2.2,3.7-2.7,4-2.5c0,0,0.1,0.1,0.1,0.2c0.1,0.2,0.2,1.3-1.2,4.4l0.9,0.4
		c1.1-2.4,1.6-4.2,1.3-5.1c-0.1-0.3-0.2-0.5-0.4-0.6c-0.9-0.7-2.6,0.2-5.2,2.6c-2.3,2.1-5,5.3-7.5,8.8c-2.6,3.5-4.7,7-6,9.9
		c-1.1,2.5-1.6,4.2-1.3,5.1c0.1,0.3,0.2,0.5,0.4,0.6C39.1,48.2,40.8,47.4,43.3,45z"/>
</g>
<g>
	<path class="st2" d="M36.1,33.1C36.1,33.1,36.2,33.1,36.1,33.1l0.5-0.8l0,0c-2.8-1.6-3.7-2.7-3.6-3l0.1-0.1
		c0.2-0.1,1.1-0.6,4.6-0.2c3.1,0.4,7,1.3,11.1,2.6c4.1,1.3,7.8,2.9,10.5,4.4c2.8,1.6,3.7,2.7,3.6,3l-0.1,0.1
		c-0.2,0.1-1.1,0.6-4.5,0.2l-0.1,0.9c2.7,0.3,4.4,0.2,5.2-0.4c0.2-0.2,0.4-0.4,0.5-0.6c0.4-1.1-1-2.4-4-4.1
		c-2.7-1.5-6.5-3.1-10.7-4.4c-4.1-1.3-8.1-2.3-11.2-2.7c-2.7-0.3-4.5-0.2-5.2,0.4c-0.2,0.2-0.4,0.4-0.5,0.6
		C31.8,30,33.1,31.4,36.1,33.1z"/>
</g>
<g>
	<path class="st4" d="M56.9,41.8L56.9,41.8L56,42.2l0,0c1.4,2.9,1.4,4.3,1.1,4.5c0,0-0.1,0-0.2,0c-0.3,0-1.3-0.2-3.8-2.5
		c-2.3-2.1-4.9-5.2-7.4-8.6c-2.5-3.5-4.6-6.9-5.9-9.7c-1.4-2.9-1.4-4.3-1.1-4.5c0,0,0.1,0,0.2,0c0.3,0,1.3,0.2,3.8,2.5l0.7-0.7
		c-2-1.8-3.5-2.8-4.4-2.8c-0.3,0-0.5,0.1-0.7,0.2c-0.9,0.7-0.6,2.5,0.8,5.7c1.3,2.8,3.5,6.4,6,9.9c2.6,3.5,5.2,6.6,7.5,8.8
		c2,1.8,3.5,2.8,4.5,2.8c0.3,0,0.5-0.1,0.7-0.2C58.7,46.9,58.4,45,56.9,41.8z"/>
</g>
<g>
	<path class="st3" d="M50.6,45.6L50.6,45.6l-0.9-0.2l0,0c-0.6,3.2-1.4,4.4-1.8,4.4c0,0-0.1,0-0.2-0.1c-0.2-0.1-0.9-0.9-1.6-4.3
		c-0.6-3-0.9-7.1-0.9-11.3c0-4.3,0.3-8.3,0.9-11.3c0.6-3.2,1.4-4.4,1.8-4.4c0,0,0.1,0,0.2,0.1c0.2,0.1,0.9,0.9,1.6,4.2l0.9-0.2
		c-0.5-2.7-1.2-4.3-2-4.9c-0.2-0.2-0.5-0.2-0.7-0.2c-1.1,0-2,1.7-2.7,5.1c-0.6,3.1-0.9,7.2-0.9,11.5s0.3,8.4,0.9,11.5
		c0.5,2.7,1.2,4.3,2,4.9c0.2,0.2,0.5,0.2,0.7,0.2C49.1,50.7,50,49.1,50.6,45.6z"/>
</g>
<g>
	<path class="st5" d="M37.8,40.2L37.8,40.2l-0.1-1l0,0c-3.2,0.4-4.6,0-4.7-0.3c0,0,0-0.1,0-0.2c0.1-0.2,0.6-1.2,3.6-2.8
		c2.7-1.5,6.4-3,10.5-4.4c4.1-1.3,8-2.3,11.1-2.6c3.2-0.4,4.6,0,4.7,0.3c0,0,0,0.1,0,0.2c-0.1,0.2-0.6,1.2-3.6,2.8l0.4,0.8
		c2.4-1.3,3.7-2.4,4-3.4c0.1-0.3,0.1-0.5,0-0.8c-0.4-1.1-2.2-1.4-5.7-1c-3.1,0.4-7.1,1.3-11.2,2.7c-4.1,1.3-7.9,2.9-10.7,4.4
		c-2.4,1.3-3.7,2.5-4,3.4c-0.1,0.3-0.1,0.5,0,0.8C32.5,40.3,34.3,40.6,37.8,40.2z"/>
</g>
<circle class="st4" cx="53.9" cy="45.6" r="1.2"/>
<circle class="st5" cx="57.3" cy="28.5" r="1.2"/>
</svg>
